HIERARCHY
ROOT hip
{
  OFFSET 0 0 0
  CHANNELS 6 Xposition Yposition Zposition Zrotation Yrotation Xrotation
  JOINT abdomen
  {
    OFFSET 0 20.6881 -0.73152
    CHANNELS 3 Zrotation Xrotation Yrotation
    JOINT chest
    {
      OFFSET 0 11.7043 -0.48768
      CHANNELS 3 Zrotation Xrotation Yrotation
      JOINT neck
      {
        OFFSET 0 22.1894 -2.19456
        CHANNELS 3 Zrotation Xrotation Yrotation
        JOINT head
        {
          OFFSET -0.24384 7.07133 1.2192
          CHANNELS 3 Zrotation Xrotation Yrotation
          JOINT leftEye
          {
            OFFSET 4.14528 8.04674 8.04672
            CHANNELS 3 Zrotation Xrotation Yrotation
            End Site
            {
              OFFSET 1 0 0
            }
          }
          JOINT rightEye
          {
            OFFSET -3.6576 8.04674 8.04672
            CHANNELS 3 Zrotation Xrotation Yrotation
            End Site
            {
              OFFSET 1 0 0
            }
          }
        }
      }
      JOINT rCollar
      {
        OFFSET -2.68224 19.2634 -4.8768
        CHANNELS 3 Zrotation Xrotation Yrotation
        JOINT rShldr
        {
          OFFSET -8.77824 -1.95073 1.46304
          CHANNELS 3 Zrotation Xrotation Yrotation
          JOINT rForeArm
          {
            OFFSET -28.1742 -1.7115 0.48768
            CHANNELS 3 Zrotation Xrotation Yrotation
            JOINT rHand
            {
              OFFSET -22.5879 0.773209 7.07136
              CHANNELS 3 Zrotation Xrotation Yrotation
              JOINT rThumb1
              {
                OFFSET -1.2192 -0.487915 3.41376
                CHANNELS 3 Zrotation Xrotation Yrotation
                JOINT rThumb2
                {
                  OFFSET -3.37035 -0.52449 3.41376
                  CHANNELS 3 Zrotation Xrotation Yrotation
                  End Site
                  {
                    OFFSET -1.78271 -1.18214 1.43049
                  }
                }
              }
              JOINT rIndex1
              {
                OFFSET -7.75947 0.938293 5.60832
                CHANNELS 3 Zrotation Xrotation Yrotation
                JOINT rIndex2
                {
                  OFFSET -2.54057 -0.884171 1.56538
                  CHANNELS 3 Zrotation Xrotation Yrotation
                  End Site
                  {
                    OFFSET -1.62519 -0.234802 1.16502
                  }
                }
              }
              JOINT rMid1
              {
                OFFSET -8.24714 1.18213 3.41376
                CHANNELS 3 Zrotation Xrotation Yrotation
                JOINT rMid2
                {
                  OFFSET -3.10165 -0.590103 1.0647
                  CHANNELS 3 Zrotation Xrotation Yrotation
                  End Site
                  {
                    OFFSET -2.48547 -0.328903 0.83742
                  }
                }
              }
              JOINT rRing1
              {
                OFFSET -8.82822 0.546677 1.51678
                CHANNELS 3 Zrotation Xrotation Yrotation
                JOINT rRing2
                {
                  OFFSET -2.60934 -0.819778 -0.0198488
                  CHANNELS 3 Zrotation Xrotation Yrotation
                  End Site
                  {
                    OFFSET -2.33842 -0.294052 0.168128
                  }
                }
              }
              JOINT rPinky1
              {
                OFFSET -8.27202 -0.0477905 -0.4584
                CHANNELS 3 Zrotation Xrotation Yrotation
                JOINT rPinky2
                {
                  OFFSET -1.82734 -0.647385 -0.700984
                  CHANNELS 3 Zrotation Xrotation Yrotation
                  End Site
                  {
                    OFFSET -1.69225 -0.51767 -0.607171
                  }
                }
              }
            }
          }
        }
      }
      JOINT lCollar
      {
        OFFSET 2.68224 19.2634 -4.8768
        CHANNELS 3 Zrotation Xrotation Yrotation
        JOINT lShldr
        {
          OFFSET 8.77824 -1.95073 1.46304
          CHANNELS 3 Zrotation Xrotation Yrotation
          JOINT lForeArm
          {
            OFFSET 28.1742 -1.7115 0.48768
            CHANNELS 3 Zrotation Xrotation Yrotation
            JOINT lHand
            {
              OFFSET 22.5879 0.773209 7.07136
              CHANNELS 3 Zrotation Xrotation Yrotation
              JOINT lThumb1
              {
                OFFSET 1.2192 -0.487915 3.41376
                CHANNELS 3 Zrotation Xrotation Yrotation
                JOINT lThumb2
                {
                  OFFSET 3.37035 -0.52449 3.41376
                  CHANNELS 3 Zrotation Xrotation Yrotation
                  End Site
                  {
                    OFFSET 1.78271 -1.18214 1.43049
                  }
                }
              }
              JOINT lIndex1
              {
                OFFSET 7.75947 0.938293 5.60832
                CHANNELS 3 Zrotation Xrotation Yrotation
                JOINT lIndex2
                {
                  OFFSET 2.54057 -0.884171 1.56538
                  CHANNELS 3 Zrotation Xrotation Yrotation
                  End Site
                  {
                    OFFSET 1.62519 -0.234802 1.16502
                  }
                }
              }
              JOINT lMid1
              {
                OFFSET 8.24714 1.18213 3.41376
                CHANNELS 3 Zrotation Xrotation Yrotation
                JOINT lMid2
                {
                  OFFSET 3.10165 -0.590103 1.0647
                  CHANNELS 3 Zrotation Xrotation Yrotation
                  End Site
                  {
                    OFFSET 2.48547 -0.328903 0.83742
                  }
                }
              }
              JOINT lRing1
              {
                OFFSET 8.82822 0.546677 1.51678
                CHANNELS 3 Zrotation Xrotation Yrotation
                JOINT lRing2
                {
                  OFFSET 2.60934 -0.819778 -0.0198488
                  CHANNELS 3 Zrotation Xrotation Yrotation
                  End Site
                  {
                    OFFSET 2.33842 -0.294052 0.168128
                  }
                }
              }
              JOINT lPinky1
              {
                OFFSET 8.27202 -0.0477905 -0.4584
                CHANNELS 3 Zrotation Xrotation Yrotation
                JOINT lPinky2
                {
                  OFFSET 1.82734 -0.647385 -0.700984
                  CHANNELS 3 Zrotation Xrotation Yrotation
                  End Site
                  {
                    OFFSET 1.69225 -0.51767 -0.607171
                  }
                }
              }
            }
          }
        }
      }
    }
  }
  JOINT rButtock
  {
    OFFSET -8.77824 4.35084 1.2192
    CHANNELS 3 Zrotation Xrotation Yrotation
    JOINT rThigh
    {
      OFFSET 0 -1.70687 -2.19456
      CHANNELS 3 Zrotation Xrotation Yrotation
      JOINT rShin
      {
        OFFSET 0 -36.8199 0.73152
        CHANNELS 3 Zrotation Xrotation Yrotation
        JOINT rFoot
        {
          OFFSET 0.73152 -45.1104 -5.12064
          CHANNELS 3 Zrotation Xrotation Yrotation
          End Site
          {
            OFFSET -1.1221 -3.69964 12.103
          }
        }
      }
    }
  }
  JOINT lButtock
  {
    OFFSET 8.77824 4.35084 1.2192
    CHANNELS 3 Zrotation Xrotation Yrotation
    JOINT lThigh
    {
      OFFSET 0 -1.70687 -2.19456
      CHANNELS 3 Zrotation Xrotation Yrotation
      JOINT lShin
      {
        OFFSET 0 -36.8199 0.73152
        CHANNELS 3 Zrotation Xrotation Yrotation
        JOINT lFoot
        {
          OFFSET -0.73152 -45.1104 -5.12064
          CHANNELS 3 Zrotation Xrotation Yrotation
          End Site
          {
            OFFSET 1.1221 -3.69964 12.103
          }
        }
      }
    }
  }
}
MOTION
Frames:	4
Frame Time:	0.03333
30.185089996710115 41.031265193489816 48.513178567686246 2.10027813911438 8.203181266784668 5.749072551727295 -5.221739292144775 9.2418212890625 3.9932563304901123 1.5443367958068848 -7.648763179779053 0.9160507321357727 -5.784180164337158 13.020137786865234 -5.2855401039123535 7.121594429016113 -21.7316951751709 -9.32280445098877 0.5410484671592712 0.12312529236078262 -0.494268536567688 1.0582948923110962 0.45616039633750916 0.27660542726516724 -0.067344069480896 -0.061375588178634644 0.9527413249015808 35.77290344238281 36.7299690246582 48.76632308959961 -23.997243881225586 -21.215877532958984 47.68452072143555 -2.0984230041503906 -1.9331198930740356 0.08238137513399124 0.22840721905231476 0.9488427639007568 -0.3522455394268036 -1.0878444910049438 0.3373451232910156 -0.3514195382595062 -0.2095264047384262 -0.5159853100776672 0.3523462414741516 7.337738513946533 5.068857669830322 2.3816001415252686 0.8509066104888916 1.2076914310455322 0.1505788415670395 2.6433277130126953 0.30304449796676636 -1.0977884531021118 0.6510650515556335 0.04862974211573601 0.26905351877212524 10.076552391052246 0.10892587900161743 0.06521578878164291 0.026482917368412018 -0.26841649413108826 -0.4945477843284607 1.1619096994400024 -0.42022469639778137 0.43438422679901123 0.45535263419151306 -0.04680411517620087 0.19931244850158691 -52.86073684692383 52.33481216430664 -41.296993255615234 21.72260093688965 -18.971298217773438 -43.004207611083984 0.443053662776947 2.6709649562835693 0.4158458113670349 -0.18748630583286285 0.0472908616065979 0.7211413383483887 -0.5554202198982239 -2.103125810623169 0.6827676296234131 -0.0060962471179664135 -0.28730878233909607 -0.04369775205850601 -7.52670431137085 5.7000203132629395 -0.6374322175979614 0.6986604332923889 1.2799537181854248 -0.7461413145065308 -3.0557265281677246 1.2197940349578857 0.8123459815979004 1.363924503326416 1.093577265739441 -1.0344431400299072 -9.55720329284668 0.5639661550521851 0.31444722414016724 -0.10525353997945786 -0.5762602686882019 0.11423757672309875 -1.6448272466659546 -2.049459934234619 -1.7234694957733154 0.07706794142723083 -1.4199343919754028 1.0409667491912842 -1.54991614818573 -34.91648864746094 -1.240152359008789 -0.16794686019420624 56.859527587890625 1.036918044090271 -5.195090293884277 -12.662490844726562 -14.04250717163086 -0.12081260979175568 -0.6398594975471497 0.5611162185668945 -1.5866907835006714 -32.84461975097656 -2.9107155799865723 0.8330438137054443 58.45451736450195 -1.2666574716567993 4.411788463592529 -15.33811092376709 11.965032577514648
31.009517521749338 41.03745334487785 49.82369411409088 1.9528628587722778 8.132776260375977 5.741121292114258 -5.028112411499023 9.243744850158691 4.070132255554199 1.4946545362472534 -7.623854160308838 0.9502827525138855 -5.755587577819824 13.003345489501953 -5.2163286209106445 7.096547603607178 -21.711687088012695 -9.204874992370605 0.5484424829483032 0.12870757281780243 -0.4840761423110962 1.0566039085388184 0.4171180725097656 0.2824440896511078 -0.053283046931028366 -0.07684523612260818 0.9400557279586792 35.97595977783203 37.03333282470703 48.440284729003906 -24.023273468017578 -21.25337028503418 47.7938232421875 -2.1075503826141357 -1.8137805461883545 0.07233276218175888 0.23174601793289185 0.922413170337677 -0.3598840832710266 -1.0853840112686157 0.3488365113735199 -0.3427066206932068 -0.206635981798172 -0.5096710920333862 0.3655398190021515 7.314669609069824 5.074656009674072 2.378070831298828 0.855711817741394 1.208055019378662 0.17069929838180542 2.6661834716796875 0.2784014344215393 -1.0928536653518677 0.6700567007064819 0.06740336865186691 0.2615247666835785 10.062386512756348 0.09040955454111099 0.07165996730327606 0.04579220339655876 -0.2676408290863037 -0.5001494288444519 1.1443867683410645 -0.41741716861724854 0.4331464171409607 0.4369245767593384 -0.03484072908759117 0.18814054131507874 -53.00094985961914 52.09492111206055 -41.04495620727539 21.69900131225586 -18.90488624572754 -42.90253829956055 0.47058913111686707 2.7359049320220947 0.42090538144111633 -0.17051666975021362 0.05160505697131157 0.7028021812438965 -0.5550314784049988 -2.111340045928955 0.6821266412734985 -0.009019337594509125 -0.2828308343887329 -0.06767653673887253 -7.493515491485596 5.688256740570068 -0.6337403059005737 0.7003212571144104 1.2587212324142456 -0.7625516057014465 -3.0577919483184814 1.1925092935562134 0.8346527814865112 1.386177659034729 1.0988043546676636 -1.0515981912612915 -9.573598861694336 0.5559085607528687 0.32258179783821106 -0.1121419370174408 -0.5601877570152283 0.11681726574897766 -1.6334173679351807 -2.0471127033233643 -1.7503812313079834 0.04331737011671066 -1.40510892868042 1.0470645427703857 -1.328922152519226 -34.2564697265625 -1.0372790098190308 -0.14695845544338226 56.52180480957031 1.0183063745498657 -5.3085761070251465 -12.808993339538574 -14.29206371307373 -0.1369539052248001 -0.6369959712028503 0.5737229585647583 -1.242690086364746 -33.33637237548828 -2.7181012630462646 0.8683451414108276 58.617977142333984 -1.2787755727767944 4.320007801055908 -15.151739120483398 11.702493667602539
31.831992893346406 41.021535589017134 51.1619020221551 1.8481686115264893 8.032071113586426 5.74092435836792 -4.867337703704834 9.234033584594727 4.093204498291016 1.459757924079895 -7.579400539398193 0.9860279560089111 -5.737412452697754 12.983901977539062 -5.176499366760254 7.1062703132629395 -21.670387268066406 -9.18121337890625 0.5496624112129211 0.1399960070848465 -0.48683401942253113 1.0539965629577637 0.3740714490413666 0.290815532207489 -0.05006992444396019 -0.08421633392572403 0.9263887405395508 36.36781692504883 37.316383361816406 47.99827575683594 -24.021095275878906 -21.20511817932129 47.82188034057617 -2.1025097370147705 -1.79026460647583 0.0437287800014019 0.23494985699653625 0.9112646579742432 -0.3607369363307953 -1.083715796470642 0.36970359086990356 -0.3418671786785126 -0.1949511021375656 -0.5070900917053223 0.3906645178794861 7.2904052734375 5.0740156173706055 2.3826920986175537 0.8625845313072205 1.2226933240890503 0.199832022190094 2.6737303733825684 0.2461390346288681 -1.0961765050888062 0.6798534393310547 0.09794741868972778 0.2570934593677521 10.032171249389648 0.09344957023859024 0.08192916214466095 0.05939595401287079 -0.25949183106422424 -0.4929946959018707 1.1329957246780396 -0.4155164957046509 0.4490967094898224 0.4095670282840729 -0.014418435283005238 0.17703892290592194 -53.252079010009766 51.86153793334961 -40.72257995605469 21.602624893188477 -18.684236526489258 -42.628196716308594 0.48310673236846924 2.932213306427002 0.3750816583633423 -0.14571942389011383 0.05393059924244881 0.6882890462875366 -0.5696679353713989 -2.1129324436187744 0.6935151219367981 -0.0004808152443729341 -0.2788335978984833 -0.0919298529624939 -7.473640441894531 5.679580211639404 -0.6145656108856201 0.7228595018386841 1.2453622817993164 -0.7966896295547485 -3.072307586669922 1.1818512678146362 0.8544086813926697 1.4052590131759644 1.0993194580078125 -1.069826364517212 -9.595904350280762 0.5639359354972839 0.3135669529438019 -0.10006816685199738 -0.5400088429450989 0.12864571809768677 -1.6128921508789062 -2.0657999515533447 -1.7719846963882446 0.031944237649440765 -1.4033629894256592 1.0636786222457886 -1.0993597507476807 -33.75896453857422 -0.8077889084815979 -0.1500818282365799 56.225772857666016 1.0156368017196655 -5.404192924499512 -12.921317100524902 -14.446635246276855 -0.15254871547222137 -0.6103839874267578 0.591353178024292 -1.0875071287155151 -33.60494613647461 -2.650606632232666 0.8705787658691406 58.60218048095703 -1.267689824104309 4.254223346710205 -15.047099113464355 11.533722877502441
32.66378314886749 41.033566967240105 52.50654663646011 1.8275736570358276 8.017555236816406 5.722678184509277 -4.822554588317871 9.229769706726074 4.0738983154296875 1.4589900970458984 -7.553762912750244 1.004238247871399 -5.7509026527404785 12.975520133972168 -5.174732685089111 7.131998062133789 -21.65407371520996 -9.216506004333496 0.5423453450202942 0.1351480334997177 -0.49887874722480774 1.0577771663665771 0.35216352343559265 0.30151015520095825 -0.06526918709278107 -0.08007463812828064 0.9318867325782776 36.682167053222656 37.4296875 47.697357177734375 -24.015470504760742 -21.152231216430664 47.82700729370117 -2.0947983264923096 -1.8089532852172852 0.03672358766198158 0.22660335898399353 0.9014252424240112 -0.3554811179637909 -1.081788182258606 0.38266897201538086 -0.3372998833656311 -0.18223008513450623 -0.5060681104660034 0.41344669461250305 7.282679557800293 5.070252895355225 2.3813705444335938 0.8697554469108582 1.231956124305725 0.23018331825733185 2.6572420597076416 0.23412632942199707 -1.1059950590133667 0.6870271563529968 0.1164601594209671 0.2722257077693939 10.005342483520508 0.1058056652545929 0.08815863728523254 0.06679509580135345 -0.2535276710987091 -0.4708540141582489 1.1350982189178467 -0.41513779759407043 0.4686618447303772 0.4018669128417969 -0.01369533035904169 0.17762748897075653 -53.43792724609375 51.76558303833008 -40.49493408203125 21.52827262878418 -18.50919532775879 -42.445343017578125 0.4717877209186554 3.037581443786621 0.3461073338985443 -0.13169364631175995 0.04407323896884918 0.6883391737937927 -0.5772152543067932 -2.1066529750823975 0.6997872591018677 0.014681417495012283 -0.27399179339408875 -0.1047787070274353 -7.4854607582092285 5.671840667724609 -0.5950065851211548 0.7464404106140137 1.2559125423431396 -0.819192111492157 -3.083780288696289 1.18983793258667 0.8582008481025696 1.3982393741607666 1.0880228281021118 -1.0734503269195557 -9.609981536865234 0.5747179388999939 0.2928420305252075 -0.07772199809551239 -0.5269240140914917 0.13805605471134186 -1.5995835065841675 -2.091977834701538 -1.7749733924865723 0.03415176272392273 -1.3978819847106934 1.0625622272491455 -1.0394631624221802 -33.67425537109375 -0.7406923770904541 -0.16936077177524567 56.172889709472656 1.0320262908935547 -5.4221882820129395 -12.936430931091309 -14.433990478515625 -0.1666003167629242 -0.5957366228103638 0.6051735877990723 -1.11245596408844 -33.606746673583984 -2.678288221359253 0.8536062240600586 58.50569152832031 -1.2498265504837036 4.258848667144775 -15.080062866210938 11.542737007141113
